<svg width="253" height="247" viewBox="0 0 253 247" fill="none" xmlns="http://www.w3.org/2000/svg">
<path d="M80.5851 40.5199L80.0465 39.2696L81.8095 38.0682C81.9926 37.9417 82.1109 37.7862 82.1644 37.6016C82.2099 37.4205 82.1895 37.2297 82.1032 37.0294L76.0533 22.987C75.9635 22.7786 75.8389 22.6327 75.6795 22.5494C75.52 22.466 75.3275 22.4492 75.1018 22.4989L73.0228 22.967L72.4945 21.7407L80.0086 18.5034L80.5369 19.7297L79.028 20.7931C78.8449 20.9195 78.7289 21.0693 78.6799 21.2424C78.6264 21.427 78.6446 21.6235 78.7343 21.8319L81.5417 28.3481L90.3904 24.5359L87.5778 18.0076C87.488 17.7992 87.3634 17.6534 87.2039 17.57C87.0445 17.4867 86.856 17.4681 86.6383 17.5144L84.7088 17.9323L84.1804 16.706L91.8027 13.4221L92.3311 14.6484L90.5629 15.8378C90.3717 15.9677 90.2517 16.1192 90.2027 16.2923C90.1538 16.4654 90.1742 16.6562 90.264 16.8646L96.3139 30.907C96.4037 31.1154 96.5323 31.2595 96.6997 31.3394C96.8626 31.4308 97.0529 31.4533 97.2706 31.4071L99.3547 30.951L99.8934 32.2014L92.2831 35.4801L91.7444 34.2298L93.3632 33.0905C93.5463 32.9641 93.6624 32.8143 93.7113 32.6412C93.7522 32.4715 93.7278 32.2825 93.638 32.0741L91.043 26.0507L82.1944 29.863L84.7894 35.8863C84.8757 36.0867 84.9986 36.2286 85.1581 36.3119C85.3175 36.3953 85.5078 36.4178 85.7289 36.3796L87.5486 36.0375L88.0872 37.2878L80.5851 40.5199Z" fill="black"/>
<path d="M70.743 47.6893L69.9616 46.5745L71.4331 45.0475C71.5867 44.8865 71.6735 44.7138 71.6934 44.5293C71.7062 44.3498 71.6474 44.1672 71.5172 43.9814L62.726 31.4392C62.5957 31.2534 62.4441 31.1359 62.271 31.0867C62.098 31.0375 61.906 31.0601 61.6952 31.1546L59.7728 32.0384L59.0064 30.945L65.9314 26.0911L66.6978 27.1845L65.2005 28.6976C65.0398 28.8636 64.953 29.0363 64.9402 29.2157C64.9275 29.3952 64.9862 29.5778 65.1165 29.7637L73.9077 42.3058C74.0329 42.4845 74.1856 42.5959 74.3658 42.6401C74.5439 42.6965 74.7348 42.6799 74.9385 42.5904L76.8866 41.7205L77.668 42.8354L70.743 47.6893Z" fill="black"/>
<path d="M62.0159 53.3382L55.8779 47.4074C55.6652 47.6023 55.4375 47.8192 55.1947 48.0579C54.9519 48.2966 54.7213 48.5289 54.503 48.7549C54.2847 48.9808 54.0846 49.1879 53.9027 49.3762C53.7147 49.5708 53.5722 49.7183 53.4751 49.8187C52.7112 50.6218 52.3535 51.5322 52.4018 52.5497C52.4441 53.5735 53.0332 54.6343 54.1692 55.7319C55.1169 56.6476 56.0816 57.1186 57.0634 57.145C58.0392 57.1776 59.1456 56.5537 60.3827 55.2734C60.7405 54.9031 61.0674 54.5334 61.3635 54.1641C61.6535 53.8012 61.871 53.5259 62.0159 53.3382ZM47.2688 43.1483L46.3086 42.2205L52.2849 36.0354L53.2452 36.9632L52.0904 38.7235C51.9701 38.9108 51.9115 39.0908 51.9145 39.2635C51.9176 39.4486 52.004 39.6231 52.1734 39.7868L63.2069 50.4478C63.37 50.6055 63.5412 50.6858 63.7202 50.6889C63.9055 50.6981 64.0897 50.6394 64.2727 50.5128L66.0108 49.2979L66.9899 50.244L64.0518 53.2847C63.5242 53.8308 63.0489 54.3666 62.6259 54.8924C62.2091 55.4241 61.6975 56.0038 61.0911 56.6314C59.2718 58.5143 57.6509 59.5451 56.2282 59.7238C54.8118 59.9086 53.4477 59.3673 52.136 58.0998C51.408 57.3964 50.896 56.6954 50.6001 55.9969C50.3044 55.3107 50.1481 54.656 50.1313 54.0329C50.1207 53.4159 50.2126 52.8373 50.407 52.297C50.5953 51.7629 50.8064 51.2933 51.0401 50.8881C50.4683 51.0152 49.8763 51.0439 49.264 50.9742C48.6518 50.9044 47.9549 50.7528 47.1732 50.5194L43.088 49.3027C42.7406 49.1975 42.4683 49.159 42.2713 49.1871C42.0743 49.2151 41.8507 49.3146 41.6006 49.4856L40.3556 50.3031L39.3953 49.3753L42.2061 46.4663C42.4851 46.1776 42.9529 46.1079 43.6097 46.2571C44.2605 46.4125 45.0887 46.6606 46.0944 47.0013L49.0093 47.9974C49.6859 48.2265 50.3218 48.4162 50.9169 48.5665C51.512 48.7167 52.0287 48.7912 52.4669 48.7898C52.9217 48.3191 53.3553 47.8704 53.7676 47.4436C54.1802 47.0292 54.529 46.6744 54.814 46.3795L50.1446 41.8677C49.9751 41.7039 49.8009 41.6205 49.6219 41.6174C49.4491 41.6204 49.2683 41.6945 49.0794 41.8397L47.2688 43.1483Z" fill="black"/>
<path d="M40.6911 75.6769L41.4455 74.435L43.8727 75.2049C44.0715 75.2643 44.251 75.2713 44.4114 75.2258C44.5793 75.1848 44.7512 75.0952 44.927 74.957C45.1781 74.7623 45.4468 74.4711 45.7333 74.0835C46.0228 73.7079 46.3147 73.2777 46.6092 72.7929L48.3084 69.9958L41.7296 65.9994L38.6099 71.5637L36.8869 70.5171L40.3423 65.1567L33.4502 60.97L31.3637 64.4048C31.0692 64.8897 30.8047 65.3672 30.5701 65.8374C30.331 66.315 30.1829 66.7101 30.1258 67.0226C30.0887 67.2349 30.0952 67.4176 30.1453 67.5705C30.1908 67.7309 30.2775 67.8908 30.4053 68.0501L32.3346 70.3709L31.408 71.4929C30.689 71.0459 29.9703 70.5481 29.2519 69.9993C28.5335 69.4506 27.8332 68.872 27.151 68.2636L35.0418 55.2739L36.183 55.9672L35.42 57.9544C35.3395 58.171 35.3294 58.364 35.3899 58.5335C35.4503 58.7029 35.5775 58.8466 35.7714 58.9644L48.8618 66.9163C49.0483 67.0296 49.2329 67.0703 49.4157 67.0383C49.6014 67.0184 49.7695 66.9265 49.9201 66.7627L51.3544 65.1832L52.518 65.8901L44.9738 78.3092C44.2439 77.9474 43.5269 77.5476 42.8228 77.1097C42.1142 76.6793 41.4037 76.2017 40.6911 75.6769Z" fill="black"/>
<path d="M18.6897 94.9279L17.3742 94.6989L18.6248 87.5153L19.9403 87.7443L19.9775 89.744C19.9745 89.9649 20.0277 90.1425 20.1372 90.2767C20.2538 90.4211 20.4174 90.5248 20.6278 90.588L35.4007 95.0333C35.6268 95.1081 35.8227 95.1024 35.9884 95.0161C36.1611 94.9398 36.2849 94.7886 36.3597 94.5625L37.1658 92.2977L38.5071 92.5312L37.288 99.5343L21.365 101.772L35.6962 108.678L34.4726 115.707L33.1313 115.474L33.1423 113.044C33.1413 112.796 33.0723 112.606 32.9355 112.476C32.8058 112.356 32.6176 112.292 32.3709 112.285L16.8767 112.059C16.6659 112.049 16.4812 112.092 16.3227 112.189C16.1713 112.295 16.0612 112.444 15.9923 112.636L15.2838 114.493L13.9683 114.264L15.3334 106.422L16.6489 106.651L16.6546 109.137L32.9405 109.394L17.0332 101.695L17.3925 99.6319L35.1222 96.9382L19.5778 92.3453L18.6897 94.9279Z" fill="black"/>
<path d="M30.9479 134.765L30.8237 133.317L33.2374 132.506C33.4329 132.437 33.582 132.336 33.6846 132.205C33.7959 132.073 33.8817 131.899 33.9421 131.683C34.0297 131.378 34.0748 130.985 34.0773 130.503C34.0892 130.029 34.0709 129.509 34.0224 128.944L33.7427 125.683L26.0734 126.341L26.84 132.674L24.8313 132.846L24.4561 126.479L16.4216 127.169L16.765 131.173C16.8135 131.738 16.8819 132.28 16.9701 132.798C17.0591 133.324 17.1727 133.731 17.3111 134.016C17.4065 134.21 17.5196 134.353 17.6503 134.447C17.7817 134.55 17.9461 134.628 18.1433 134.681L21.0706 135.415L20.985 136.868C20.1408 136.932 19.2668 136.954 18.3629 136.935C17.4591 136.916 16.5523 136.863 15.6425 136.774L14.3437 121.631L15.6741 121.517L16.2314 123.572C16.2942 123.794 16.4001 123.956 16.5489 124.057C16.6977 124.158 16.8852 124.199 17.1112 124.179L32.3716 122.871C32.589 122.852 32.762 122.776 32.8907 122.642C33.0288 122.516 33.1103 122.343 33.1351 122.122L33.3605 120L34.7169 119.884L35.9587 134.362C35.156 134.501 34.3412 134.601 33.5144 134.663C32.6883 134.734 31.8328 134.768 30.9479 134.765Z" fill="black"/>
<path d="M77.7133 198.032L76.8663 199.097L74.974 198.112C74.776 198.011 74.5831 197.98 74.3951 198.02C74.214 198.066 74.0556 198.174 73.9198 198.345L64.4072 210.315C64.266 210.493 64.1964 210.672 64.1984 210.852C64.2003 211.032 64.2766 211.209 64.4271 211.385L65.8226 212.995L64.9919 214.04L58.5862 208.95L59.417 207.905L61.0675 208.732C61.2655 208.833 61.4523 208.865 61.628 208.826C61.816 208.786 61.9805 208.677 62.1217 208.499L66.5359 202.944L58.9927 196.95L54.5703 202.515C54.4291 202.693 54.3595 202.872 54.3615 203.051C54.3634 203.231 54.4362 203.406 54.5799 203.576L55.8606 205.079L55.0298 206.124L48.532 200.961L49.3627 199.915L51.2469 200.911C51.4517 201.018 51.6419 201.052 51.8176 201.013C51.9933 200.975 52.1518 200.866 52.2929 200.689L61.8055 188.718C61.9467 188.54 62.0129 188.359 62.0041 188.173C62.0076 187.987 61.9375 187.808 61.7938 187.638L60.4064 186.018L61.2535 184.952L67.7411 190.107L66.8941 191.173L65.1247 190.285C64.9268 190.184 64.7399 190.152 64.5642 190.191C64.3954 190.235 64.2404 190.346 64.0992 190.524L60.0189 195.659L67.5621 201.653L71.6424 196.518C71.7782 196.347 71.8451 196.172 71.8431 195.992C71.8412 195.812 71.7711 195.634 71.6328 195.457L70.4709 194.015L71.318 192.95L77.7133 198.032Z" fill="black"/>
<path d="M88.6845 203.314L88.0716 204.529L86.0303 203.955C85.8158 203.896 85.6226 203.901 85.4506 203.971C85.2865 204.044 85.1533 204.182 85.0512 204.385L78.1568 218.062C78.0546 218.264 78.0228 218.454 78.0612 218.629C78.0997 218.805 78.2104 218.964 78.3934 219.105L80.0812 220.381L79.4801 221.573L71.9286 217.766L72.5296 216.574L74.5709 217.178C74.7931 217.241 74.9863 217.236 75.1505 217.162C75.3147 217.089 75.4478 216.95 75.55 216.748L82.4444 203.071C82.5426 202.876 82.5686 202.689 82.5223 202.509C82.4878 202.326 82.383 202.165 82.2078 202.028L80.5201 200.723L81.1329 199.507L88.6845 203.314Z" fill="black"/>
<path d="M97.7886 208.332L95.4651 216.545C95.7374 216.641 96.0362 216.739 96.3613 216.84C96.6865 216.941 97.0002 217.034 97.3025 217.12C97.6048 217.205 97.8819 217.284 98.1339 217.355C98.3942 217.428 98.5915 217.484 98.7259 217.522C99.7948 217.816 100.766 217.7 101.64 217.177C102.522 216.655 103.178 215.635 103.608 214.115C103.967 212.847 103.926 211.774 103.485 210.896C103.052 210.021 101.979 209.341 100.266 208.857C99.7706 208.716 99.2902 208.603 98.8248 208.517C98.3678 208.433 98.0224 208.371 97.7886 208.332ZM95.7831 226.145L95.4196 227.43L87.1437 225.089L87.5072 223.804L89.6044 223.989C89.8262 224.006 90.0125 223.973 90.1633 223.889C90.3249 223.798 90.4378 223.64 90.5019 223.413L94.6785 208.65C94.7403 208.431 94.7302 208.243 94.6483 208.083C94.5687 207.916 94.4299 207.781 94.2319 207.68L92.3395 206.723L92.7101 205.413L96.7788 206.564C97.5094 206.771 98.2063 206.936 98.8696 207.06C99.5352 207.176 100.288 207.353 101.128 207.59C103.647 208.303 105.322 209.244 106.152 210.413C106.984 211.573 107.153 213.031 106.656 214.786C106.38 215.761 106.005 216.543 105.529 217.134C105.064 217.719 104.561 218.167 104.02 218.476C103.482 218.777 102.928 218.97 102.36 219.054C101.801 219.141 101.287 219.177 100.82 219.162C101.202 219.606 101.507 220.114 101.735 220.687C101.963 221.259 102.159 221.945 102.323 222.744L103.183 226.919C103.254 227.275 103.349 227.533 103.467 227.693C103.585 227.853 103.778 228.003 104.047 228.143L105.356 228.853L104.993 230.138L101.101 229.037C100.714 228.928 100.432 228.549 100.253 227.899C100.082 227.252 99.9088 226.405 99.7335 225.358L99.2329 222.319C99.1148 221.614 98.9812 220.964 98.8322 220.369C98.6832 219.773 98.5045 219.283 98.2961 218.897C97.6663 218.719 97.0659 218.549 96.4948 218.388C95.9346 218.22 95.4571 218.08 95.0624 217.969L93.2948 224.217C93.2307 224.443 93.2396 224.636 93.3215 224.796C93.4058 224.946 93.5566 225.071 93.7738 225.168L95.7831 226.145Z" fill="black"/>
<path d="M127.556 216.56L126.105 216.482L125.635 213.979C125.594 213.776 125.515 213.615 125.399 213.495C125.283 213.366 125.123 213.257 124.918 213.168C124.628 213.039 124.244 212.939 123.767 212.87C123.3 212.793 122.782 212.739 122.216 212.709L118.948 212.534L118.537 220.221L124.915 220.338L124.808 222.352L118.451 221.842L118.021 229.894L122.034 230.108C122.6 230.139 123.146 230.146 123.671 230.13C124.205 230.115 124.623 230.059 124.926 229.961C125.13 229.894 125.288 229.802 125.399 229.685C125.519 229.569 125.619 229.417 125.699 229.229L126.832 226.432L128.258 226.718C128.205 227.563 128.106 228.431 127.962 229.324C127.818 230.216 127.639 231.107 127.426 231.996L112.249 231.185L112.32 229.852L114.432 229.584C114.661 229.553 114.836 229.471 114.957 229.337C115.077 229.204 115.144 229.024 115.156 228.797L115.973 213.503C115.984 213.285 115.933 213.103 115.818 212.957C115.713 212.803 115.553 212.698 115.337 212.643L113.267 212.126L113.34 210.766L127.85 211.541C127.876 212.356 127.863 213.176 127.81 214.004C127.766 214.832 127.681 215.684 127.556 216.56Z" fill="black"/>
<path d="M154.922 226.843L155.342 228.11L148.421 230.405L148.001 229.138L149.745 228.16C149.941 228.058 150.073 227.927 150.139 227.767C150.211 227.596 150.225 227.403 150.181 227.187L147.113 212.068C147.072 211.834 146.974 211.664 146.82 211.559C146.671 211.443 146.479 211.405 146.245 211.446L143.868 211.807L143.439 210.514L150.186 208.277L159.687 221.25L158.996 205.356L165.768 203.111L166.197 204.403L164.051 205.542C163.832 205.66 163.698 205.811 163.648 205.993C163.604 206.164 163.637 206.36 163.747 206.581L170.874 220.34C170.965 220.53 171.09 220.673 171.25 220.767C171.416 220.85 171.599 220.876 171.801 220.846L173.772 220.593L174.192 221.86L166.637 224.365L166.217 223.098L168.404 221.917L160.93 207.446L161.668 225.103L159.68 225.762L148.923 211.413L152.226 227.282L154.922 226.843Z" fill="black"/>
<path d="M184.228 197.205L183.011 197.999L181.155 196.255C181.001 196.116 180.842 196.032 180.678 196.004C180.509 195.968 180.315 195.975 180.097 196.024C179.786 196.091 179.418 196.237 178.992 196.463C178.569 196.676 178.12 196.938 177.644 197.248L174.904 199.037L179.11 205.483L184.327 201.813L185.429 203.502L179.997 206.843L184.403 213.596L187.769 211.4C188.244 211.09 188.689 210.774 189.103 210.451C189.526 210.124 189.83 209.832 190.016 209.575C190.141 209.399 190.215 209.232 190.236 209.072C190.264 208.908 190.255 208.726 190.208 208.527L189.471 205.6L190.792 204.989C191.247 205.703 191.68 206.462 192.091 207.268C192.501 208.073 192.883 208.897 193.235 209.741L180.506 218.046L179.777 216.927L181.324 215.465C181.49 215.304 181.582 215.135 181.601 214.956C181.62 214.777 181.567 214.592 181.443 214.402L173.074 201.575C172.955 201.392 172.806 201.275 172.627 201.225C172.451 201.163 172.26 201.173 172.053 201.256L170.077 202.06L169.333 200.92L181.503 192.98C182.005 193.622 182.479 194.292 182.924 194.991C183.377 195.686 183.812 196.423 184.228 197.205Z" fill="black"/>
<path d="M216.564 136.609L217.866 137.004L217.647 139.126C217.625 139.348 217.667 139.538 217.774 139.698C217.883 139.85 218.042 139.957 218.251 140.021L232.882 144.46C233.099 144.526 233.291 144.525 233.458 144.456C233.624 144.388 233.762 144.252 233.869 144.048L234.853 142.157L236.131 142.545L233.756 150.374L232.478 149.987L232.639 148.148C232.661 147.926 232.621 147.741 232.52 147.592C232.414 147.432 232.252 147.319 232.035 147.253L225.245 145.193L222.448 154.413L229.25 156.477C229.467 156.543 229.659 156.542 229.826 156.474C229.992 156.406 230.128 156.274 230.233 156.078L231.159 154.334L232.437 154.721L230.027 162.664L228.749 162.276L228.982 160.158C229.006 159.928 228.968 159.738 228.867 159.589C228.766 159.44 228.607 159.333 228.39 159.267L213.758 154.828C213.541 154.762 213.348 154.767 213.179 154.843C213.004 154.909 212.864 155.04 212.759 155.236L211.763 157.122L210.46 156.727L212.866 148.798L214.168 149.193L213.994 151.165C213.973 151.386 214.012 151.571 214.113 151.72C214.216 151.861 214.376 151.964 214.593 152.03L220.87 153.934L223.667 144.714L217.391 142.81C217.182 142.747 216.994 142.749 216.828 142.817C216.661 142.885 216.521 143.016 216.408 143.21L215.495 144.821L214.192 144.426L216.564 136.609Z" fill="black"/>
<path d="M217.437 124.464L218.793 124.586L219.01 126.695C219.034 126.917 219.11 127.094 219.238 127.229C219.367 127.354 219.544 127.427 219.77 127.448L235.025 128.824C235.251 128.845 235.438 128.805 235.587 128.704C235.737 128.604 235.843 128.442 235.907 128.22L236.472 126.181L237.802 126.301L237.042 134.724L235.712 134.604L235.522 132.484C235.499 132.254 235.423 132.076 235.294 131.951C235.166 131.825 234.988 131.752 234.762 131.732L219.508 130.355C219.291 130.335 219.107 130.38 218.957 130.489C218.799 130.589 218.688 130.745 218.625 130.959L218.033 133.008L216.677 132.886L217.437 124.464Z" fill="black"/>
<path d="M218.753 114.151L227.244 113.289C227.233 113.001 227.214 112.687 227.188 112.347C227.162 112.008 227.134 111.682 227.102 111.369C227.07 111.057 227.041 110.77 227.015 110.51C226.987 110.24 226.967 110.036 226.952 109.897C226.832 108.796 226.367 107.935 225.559 107.315C224.749 106.687 223.559 106.453 221.987 106.612C220.676 106.745 219.694 107.178 219.04 107.911C218.386 108.636 218.148 109.884 218.328 111.655C218.38 112.167 218.452 112.656 218.543 113.12C218.633 113.576 218.703 113.92 218.753 114.151ZM236.053 109.46L237.381 109.325L238.25 117.882L236.922 118.017L236.322 115.999C236.257 115.786 236.157 115.625 236.023 115.516C235.88 115.399 235.691 115.352 235.456 115.376L220.192 116.926C219.967 116.949 219.795 117.028 219.677 117.163C219.55 117.298 219.476 117.477 219.455 117.698L219.262 119.81L217.907 119.948L217.48 115.741C217.403 114.986 217.3 114.277 217.172 113.614C217.034 112.953 216.922 112.188 216.834 111.32C216.569 108.715 216.827 106.812 217.609 105.609C218.382 104.408 219.675 103.715 221.49 103.531C222.497 103.429 223.363 103.49 224.088 103.715C224.803 103.931 225.404 104.234 225.891 104.624C226.369 105.014 226.752 105.457 227.039 105.954C227.325 106.443 227.548 106.907 227.707 107.347C227.979 106.828 228.339 106.357 228.787 105.935C229.235 105.512 229.801 105.077 230.484 104.631L234.049 102.295C234.354 102.097 234.559 101.914 234.664 101.746C234.77 101.577 234.838 101.342 234.869 101.041L235.048 99.5619L236.376 99.427L236.785 103.451C236.826 103.851 236.577 104.253 236.039 104.659C235.5 105.056 234.777 105.528 233.867 106.077L231.225 107.661C230.614 108.03 230.059 108.393 229.56 108.751C229.061 109.109 228.671 109.455 228.389 109.791C228.455 110.442 228.518 111.063 228.578 111.653C228.629 112.236 228.675 112.731 228.716 113.139L235.176 112.483C235.41 112.46 235.586 112.38 235.704 112.246C235.814 112.112 235.874 111.926 235.885 111.688L236.053 109.46Z" fill="black"/>
<path d="M215.447 83.4457L215.909 84.8234L213.754 86.181C213.581 86.2944 213.459 86.4271 213.391 86.579C213.314 86.7337 213.271 86.9228 213.263 87.1464C213.25 87.4638 213.299 87.857 213.41 88.3259C213.511 88.7894 213.651 89.2901 213.831 89.8279L214.872 92.9308L222.17 90.4835L219.932 84.5098L221.843 83.8689L223.709 89.9675L231.354 87.4036L230.077 83.5933C229.896 83.0554 229.702 82.5452 229.494 82.0626C229.284 81.5717 229.077 81.2037 228.875 80.9584C228.737 80.7931 228.593 80.6802 228.444 80.6197C228.292 80.551 228.114 80.5141 227.91 80.5089L224.892 80.4854L224.633 79.0535C225.438 78.7926 226.282 78.5648 227.165 78.37C228.048 78.1753 228.942 78.0136 229.847 77.885L234.679 92.2949L233.413 92.7195L232.387 90.8543C232.274 90.653 232.133 90.5208 231.964 90.4576C231.796 90.3945 231.604 90.399 231.389 90.4711L216.867 95.3407C216.66 95.4101 216.51 95.5249 216.417 95.6851C216.312 95.8398 216.274 96.0276 216.302 96.2483L216.583 98.3632L215.292 98.796L210.672 85.0191C211.42 84.6949 212.188 84.4051 212.976 84.1498C213.763 83.8862 214.586 83.6515 215.447 83.4457Z" fill="black"/>
<path d="M214.936 54.2155L215.96 53.3583L220.641 58.949L219.617 59.8062L218.065 58.5443C217.899 58.3995 217.729 58.3256 217.555 58.3226C217.37 58.3186 217.185 58.3766 217.001 58.4966L204.073 66.9142C203.87 67.0387 203.748 67.1921 203.707 67.3743C203.653 67.5554 203.689 67.7475 203.814 67.9506L205.024 70.0279L203.98 70.9019L199.416 65.4518L207.981 51.8434L193.458 58.3355L188.877 52.8653L189.921 51.9913L191.77 53.5675C191.961 53.7269 192.15 53.7963 192.337 53.7757C192.513 53.7541 192.683 53.6514 192.848 53.4678L203.018 41.7765C203.162 41.6219 203.248 41.453 203.277 41.2697C203.293 41.0853 203.25 40.9049 203.148 40.7286L202.187 38.9893L203.211 38.1321L208.32 44.2346L207.297 45.0919L205.394 43.4923L194.689 55.7682L210.835 48.5833L212.179 50.1893L202.797 65.4723L216.336 56.5605L214.936 54.2155Z" fill="black"/>
<path d="M176.592 37.8752L177.778 38.7145L176.841 41.0821C176.767 41.2762 176.748 41.4548 176.782 41.618C176.811 41.7883 176.889 41.966 177.014 42.1511C177.191 42.4151 177.463 42.7036 177.829 43.0164C178.184 43.3314 178.592 43.6527 179.056 43.9804L181.727 45.8707L186.173 39.5872L180.84 36.0865L182.005 34.4408L187.111 38.2621L191.769 31.6794L188.488 29.358C188.025 29.0303 187.567 28.7331 187.114 28.4663C186.655 28.1944 186.271 28.0191 185.963 27.9403C185.754 27.8884 185.571 27.8822 185.415 27.9214C185.252 27.9556 185.086 28.0309 184.919 28.1473L182.469 29.9098L181.414 28.9071C181.91 28.2211 182.457 27.5389 183.055 26.8606C183.652 26.1822 184.278 25.524 184.933 24.886L197.34 33.6649L196.568 34.7549L194.639 33.8549C194.429 33.7595 194.237 33.736 194.064 33.7845C193.891 33.8329 193.738 33.9498 193.607 34.135L184.76 46.6379C184.634 46.816 184.581 46.9974 184.6 47.1819C184.607 47.3686 184.687 47.5427 184.84 47.7044L186.315 49.2455L185.529 50.3568L173.667 41.9636C174.079 41.2607 174.528 40.5734 175.014 39.9017C175.493 39.2249 176.019 38.5494 176.592 37.8752Z" fill="black"/>
<line x1="126.433" y1="20.0188" x2="149.433" y2="22.0188" stroke="black" stroke-width="10"/>
<line x1="33.0959" y1="161.132" x2="46.3368" y2="180.045" stroke="black" stroke-width="10"/>
<line x1="201.47" y1="189.76" x2="217.818" y2="173.459" stroke="black" stroke-width="10"/>
</svg>
